<svg width="260" height="256" viewBox="0 0 260 256" fill="currentColor" xmlns="http://www.w3.org/2000/svg">
    <path
        d="M204.173 222.787C190.309 222.783 176.963 222.853 163.619 222.757C147.737 222.643 137.771 211.481 139.295 195.772C139.741 191.174 141.938 188.322 146.677 187.896C151.129 187.496 154.32 190.254 155.194 195.185C155.434 196.542 155.333 197.956 155.519 199.325C156.217 204.433 159.521 207.593 163.988 207.497C168.502 207.4 172.029 204.241 172.438 199.218C172.816 194.576 172.6 189.883 172.605 185.213C172.622 169.616 172.549 154.019 172.677 138.423C172.708 134.724 171.666 133.037 167.641 133.284C146.049 134.611 124.449 135.814 102.847 136.981C92.1174 137.56 81.3957 137.991 71.0932 141.579C45.6212 150.449 26.6739 166.145 18.2849 192.571C15.061 202.726 13.6803 213.225 16.2406 223.82C18.5123 233.221 25.804 239.255 35.0902 239.749C42.81 240.159 49.4372 235.331 52.9083 226.392C56.0796 218.225 57.1595 209.596 57.362 200.92C57.645 188.795 57.4525 176.659 57.6194 164.53C57.72 157.221 59.5632 150.817 67.2321 147.665C75.9414 144.086 86.6323 149.841 86.7339 159.255C86.9445 178.768 88.5614 198.351 83.8687 217.717C76.6629 247.453 46.3278 263.274 18.9245 250.764C6.47337 245.08 1.3545 233.893 0.371411 220.951C-2.50068 183.143 17.9132 147.082 51.7305 130.089C56.0477 127.919 57.7279 125.48 57.7065 120.595C57.6154 99.816 58.0683 79.0348 58.0392 58.2548C58.0341 54.5985 60.2145 49.1832 54.1522 48.071C44.7911 46.3535 38.0074 49.7011 36.1272 56.264C35.7955 57.4218 35.7707 58.6638 35.5112 59.8466C34.3476 65.1511 31.0994 67.958 26.6532 67.5472C22.3485 67.1495 19.4306 63.6574 19.0399 58.4358C18.0913 45.7567 28.8368 33.3341 42.0315 33.0171C60.7376 32.5677 79.4697 32.5852 98.177 33.0095C111.621 33.3143 122.019 45.4941 121.185 58.8472C120.862 64.029 117.875 67.3372 113.299 67.5834C109.113 67.8086 106.043 64.8792 105.167 59.8239C103.768 51.7539 99.4347 48.0145 92.004 47.8756C88.0854 47.8024 86.9193 49.3591 86.9525 53.0962C87.1064 70.4241 87.0701 87.7538 87.0874 105.083C87.0921 109.76 87.1697 114.442 86.983 119.113C86.8455 122.555 88.287 123.717 91.6259 123.523C106.659 122.649 121.706 122.011 136.733 121.065C148.991 120.294 161.291 119.698 173.464 118.168C207.153 113.931 239.078 89.9482 244.067 51.0765C245.3 41.4624 246.546 31.2903 239.133 22.8138C229.988 12.3563 214.997 13.6294 208.335 25.7757C202.718 36.0185 202.777 47.4838 202.316 58.6809C201.84 70.2739 202.141 81.8998 202.144 93.5113C202.145 99.4542 200.1 104.488 195.1 107.796C186.028 113.799 173.157 108.075 172.988 97.1728C172.685 77.6725 170.601 57.9936 175.773 38.7201C181.09 18.9044 192.339 5.07116 213.475 1.083C232.707 -2.54577 249.99 5.36884 256.398 21.2176C260.329 30.9426 260.223 41.2427 259.012 51.4576C254.866 86.421 235.828 111.091 205.6 127.83C203.122 129.202 202.164 130.823 202.172 133.563C202.236 154.88 202.139 176.197 202.251 197.514C202.288 204.588 205.34 207.5 211.994 207.543C218.983 207.588 222.387 204.59 222.715 197.752C222.909 193.703 223.665 190.109 227.868 188.409C232.629 186.482 237.489 189.142 238.606 194.188C241.698 208.152 231.961 221.498 217.685 222.627C213.377 222.968 209.024 222.749 204.173 222.787Z" />
</svg>