<svg version="1.1" id="Layer_1" xmlns="http://www.w3.org/2000/svg" xmlns:xlink="http://www.w3.org/1999/xlink" x="0px" y="0px"
	 width="100%" viewBox="0 0 576 384" enable-background="new 0 0 576 384" xml:space="preserve">
<path fill="#000000" opacity="1.000000" stroke="none" 
	d="
M354.997559,287.313965 
	C341.665619,287.310791 328.832672,287.378021 316.000885,287.285553 
	C300.728363,287.175476 291.145111,276.442535 292.610931,261.336731 
	C293.039948,256.915466 295.152740,254.172928 299.708954,253.763275 
	C303.990509,253.378342 307.058777,256.030121 307.898987,260.772095 
	C308.130127,262.076538 308.032532,263.436279 308.212311,264.753357 
	C308.882660,269.664764 312.060089,272.703522 316.355682,272.611267 
	C320.695892,272.518036 324.087524,269.480255 324.480957,264.650269 
	C324.844635,260.186371 324.637390,255.674133 324.642120,251.183136 
	C324.657898,236.185287 324.587494,221.186890 324.711273,206.190018 
	C324.740601,202.632568 323.738739,201.010147 319.868408,201.247986 
	C299.105255,202.523911 278.334564,203.681076 257.562317,204.802826 
	C247.244736,205.359985 236.934753,205.773773 227.027832,209.223984 
	C202.533859,217.754318 184.314117,232.847321 176.247253,258.258209 
	C173.147171,268.023560 171.819504,278.119202 174.281433,288.307556 
	C176.465881,297.347595 183.477646,303.149963 192.407227,303.624512 
	C199.830673,304.019012 206.203400,299.376251 209.541168,290.780823 
	C212.590698,282.927673 213.629135,274.630219 213.823853,266.286926 
	C214.095978,254.627197 213.910934,242.957535 214.071396,231.294174 
	C214.168091,224.265945 215.940582,218.107254 223.314957,215.076782 
	C231.689896,211.635178 241.970261,217.168823 242.067947,226.221405 
	C242.270447,244.985199 243.825272,263.816986 239.312790,282.438599 
	C232.383636,311.033173 203.213333,326.246246 176.862289,314.217194 
	C164.889267,308.751648 159.966949,297.993469 159.021606,285.548920 
	C156.259796,249.192612 175.889816,214.516479 208.408630,198.175171 
	C212.560074,196.089020 214.175766,193.743851 214.155167,189.046310 
	C214.067551,169.065048 214.503082,149.081818 214.475098,129.099686 
	C214.470169,125.583817 216.566849,120.376396 210.737320,119.306900 
	C201.735641,117.655418 195.212494,120.874405 193.404480,127.185341 
	C193.085495,128.298645 193.061646,129.493011 192.812149,130.630341 
	C191.693176,135.731232 188.569687,138.430344 184.294235,138.035309 
	C180.154846,137.652847 177.348938,134.294815 176.973297,129.273758 
	C176.061096,117.081497 186.394012,105.135918 199.082062,104.831085 
	C217.069855,104.398918 235.082718,104.415787 253.071640,104.823715 
	C265.999420,105.116859 275.998413,116.828941 275.196442,129.669388 
	C274.885223,134.652145 272.013702,137.833359 267.613495,138.070099 
	C263.588043,138.286697 260.635620,135.469742 259.793091,130.608536 
	C258.448151,122.848465 254.281113,119.252571 247.135712,119.119080 
	C243.367523,119.048676 242.246277,120.545586 242.278183,124.139137 
	C242.426132,140.801758 242.391205,157.466049 242.407928,174.129730 
	C242.412430,178.627335 242.486984,183.129715 242.307541,187.621033 
	C242.175293,190.931091 243.561386,192.048782 246.772156,191.862076 
	C261.227600,191.021515 275.696777,190.407745 290.147552,189.498428 
	C301.934662,188.756744 313.761993,188.183823 325.467834,186.711914 
	C357.863190,182.638504 388.562500,159.576141 393.359467,122.197060 
	C394.545929,112.952126 395.743317,103.170586 388.615417,95.019577 
	C379.821625,84.963562 365.405884,86.187820 359.000214,97.867683 
	C353.598358,107.717209 353.655029,118.742279 353.212372,129.509445 
	C352.754059,140.657318 353.043701,151.836777 353.046143,163.002411 
	C353.047394,168.717178 351.080566,173.557358 346.272980,176.738602 
	C337.549011,182.511353 325.172638,177.007339 325.010040,166.523346 
	C324.719147,147.771790 322.714294,128.848495 327.687714,110.315132 
	C332.801117,91.260277 343.617615,77.958191 363.942810,74.123169 
	C382.436371,70.633736 399.055847,78.244438 405.216980,93.484604 
	C408.997559,102.836258 408.895203,112.740875 407.730499,122.563461 
	C403.743988,156.184433 385.436798,179.906738 356.369934,196.003036 
	C353.986908,197.322678 353.065338,198.881485 353.073334,201.516708 
	C353.135468,222.014893 353.042145,242.513672 353.149170,263.011475 
	C353.184692,269.814392 356.120087,272.613983 362.518188,272.655487 
	C369.239136,272.699036 372.512238,269.815857 372.827606,263.240509 
	C373.014343,259.347107 373.741608,255.891388 377.782745,254.256165 
	C382.360931,252.403625 387.034088,254.960876 388.108490,259.813446 
	C391.081543,273.241486 381.718781,286.074432 367.990906,287.160309 
	C363.848175,287.488007 359.662842,287.277618 354.997559,287.313965 
z"/>
</svg>